G04 #@! TF.GenerationSoftware,KiCad,Pcbnew,(5.1.2)-2*
G04 #@! TF.CreationDate,2019-12-04T01:20:50+01:00*
G04 #@! TF.ProjectId,raspberrypi-gpio-40pin,72617370-6265-4727-9279-70692d677069,rev?*
G04 #@! TF.SameCoordinates,Original*
G04 #@! TF.FileFunction,Copper,L1,Top*
G04 #@! TF.FilePolarity,Positive*
%FSLAX46Y46*%
G04 Gerber Fmt 4.6, Leading zero omitted, Abs format (unit mm)*
G04 Created by KiCad (PCBNEW (5.1.2)-2) date 2019-12-04 01:20:50*
%MOMM*%
%LPD*%
G04 APERTURE LIST*
%ADD10C,0.250000*%
%ADD11R,2.200000X2.200000*%
%ADD12O,2.500000X2.000000*%
%ADD13O,2.000000X2.500000*%
%ADD14R,1.700000X1.700000*%
%ADD15C,2.000000*%
%ADD16C,3.500000*%
%ADD17R,3.500000X3.500000*%
%ADD18C,1.000000*%
%ADD19C,0.200000*%
%ADD20C,0.254000*%
G04 APERTURE END LIST*
D10*
X211371428Y-101752380D02*
X211990476Y-101752380D01*
X211657142Y-102133333D01*
X211800000Y-102133333D01*
X211895238Y-102180952D01*
X211942857Y-102228571D01*
X211990476Y-102323809D01*
X211990476Y-102561904D01*
X211942857Y-102657142D01*
X211895238Y-102704761D01*
X211800000Y-102752380D01*
X211514285Y-102752380D01*
X211419047Y-102704761D01*
X211371428Y-102657142D01*
X212419047Y-102657142D02*
X212466666Y-102704761D01*
X212419047Y-102752380D01*
X212371428Y-102704761D01*
X212419047Y-102657142D01*
X212419047Y-102752380D01*
X212800000Y-101752380D02*
X213419047Y-101752380D01*
X213085714Y-102133333D01*
X213228571Y-102133333D01*
X213323809Y-102180952D01*
X213371428Y-102228571D01*
X213419047Y-102323809D01*
X213419047Y-102561904D01*
X213371428Y-102657142D01*
X213323809Y-102704761D01*
X213228571Y-102752380D01*
X212942857Y-102752380D01*
X212847619Y-102704761D01*
X212800000Y-102657142D01*
X213752380Y-102085714D02*
X213990476Y-102752380D01*
X214228571Y-102085714D01*
X203057142Y-101952380D02*
X202580952Y-101952380D01*
X202533333Y-102428571D01*
X202580952Y-102380952D01*
X202676190Y-102333333D01*
X202914285Y-102333333D01*
X203009523Y-102380952D01*
X203057142Y-102428571D01*
X203104761Y-102523809D01*
X203104761Y-102761904D01*
X203057142Y-102857142D01*
X203009523Y-102904761D01*
X202914285Y-102952380D01*
X202676190Y-102952380D01*
X202580952Y-102904761D01*
X202533333Y-102857142D01*
X203438095Y-102285714D02*
X203676190Y-102952380D01*
X203914285Y-102285714D01*
D11*
X207900000Y-116560000D03*
D12*
X207900000Y-119100000D03*
D11*
X204300000Y-116560000D03*
D12*
X204300000Y-119100000D03*
D11*
X207900000Y-123100000D03*
D12*
X207900000Y-125640000D03*
D11*
X204300000Y-123100000D03*
D12*
X204300000Y-125640000D03*
D11*
X252300000Y-109300000D03*
D12*
X252300000Y-111840000D03*
D11*
X248500000Y-118700000D03*
D12*
X248500000Y-121240000D03*
D11*
X248300000Y-125360000D03*
D12*
X248300000Y-127900000D03*
D11*
X251440000Y-136300000D03*
D13*
X248900000Y-136300000D03*
D11*
X243200000Y-132400000D03*
D13*
X240660000Y-132400000D03*
D11*
X233600000Y-136000000D03*
D13*
X231060000Y-136000000D03*
D11*
X223200000Y-132200000D03*
D13*
X220660000Y-132200000D03*
D11*
X215200000Y-136300000D03*
D13*
X212660000Y-136300000D03*
D11*
X248700000Y-109300000D03*
D12*
X248700000Y-111840000D03*
D11*
X252100000Y-118700000D03*
D12*
X252100000Y-121240000D03*
D11*
X252000000Y-125360000D03*
D12*
X252000000Y-127900000D03*
D11*
X251440000Y-132600000D03*
D13*
X248900000Y-132600000D03*
D11*
X243200000Y-136000000D03*
D13*
X240660000Y-136000000D03*
D11*
X233600000Y-132400000D03*
D13*
X231060000Y-132400000D03*
D11*
X223200000Y-135900000D03*
D13*
X220660000Y-135900000D03*
D11*
X215200000Y-132700000D03*
D13*
X212660000Y-132700000D03*
D14*
X208370000Y-98770000D03*
D15*
X208370000Y-96230000D03*
X210910000Y-98770000D03*
X210910000Y-96230000D03*
X213450000Y-98770000D03*
X213450000Y-96230000D03*
X215990000Y-98770000D03*
X215990000Y-96230000D03*
X218530000Y-98770000D03*
X218530000Y-96230000D03*
X221070000Y-98770000D03*
X221070000Y-96230000D03*
X223610000Y-98770000D03*
X223610000Y-96230000D03*
X226150000Y-98770000D03*
X226150000Y-96230000D03*
X228690000Y-98770000D03*
X228690000Y-96230000D03*
X231230000Y-98770000D03*
X231230000Y-96230000D03*
X233770000Y-98770000D03*
X233770000Y-96230000D03*
X236310000Y-98770000D03*
X236310000Y-96230000D03*
X238850000Y-98770000D03*
X238850000Y-96230000D03*
X241390000Y-98770000D03*
X241390000Y-96230000D03*
X243930000Y-98770000D03*
X243930000Y-96230000D03*
X246470000Y-98770000D03*
X246470000Y-96230000D03*
X249010000Y-98770000D03*
X249010000Y-96230000D03*
X251550000Y-98770000D03*
X251550000Y-96230000D03*
X254090000Y-98770000D03*
X254090000Y-96230000D03*
X256630000Y-98770000D03*
X256630000Y-96230000D03*
D16*
X206500000Y-112000000D03*
D17*
X206500000Y-107000000D03*
D16*
X206300000Y-135300000D03*
D17*
X206300000Y-130300000D03*
D16*
X258250000Y-107750000D03*
D17*
X258250000Y-112750000D03*
D16*
X258250000Y-117750000D03*
D17*
X258250000Y-122750000D03*
D16*
X258250000Y-127750000D03*
D17*
X258250000Y-132750000D03*
D16*
X254500000Y-142250000D03*
D17*
X249500000Y-142250000D03*
D16*
X244500000Y-142250000D03*
D17*
X239500000Y-142250000D03*
D16*
X234500000Y-142250000D03*
D17*
X229500000Y-142250000D03*
D16*
X224500000Y-142250000D03*
D17*
X219500000Y-142250000D03*
D16*
X214500000Y-142250000D03*
D17*
X209500000Y-142250000D03*
D18*
X207900000Y-123100000D02*
X210000000Y-123100000D01*
X210000000Y-123100000D02*
X214000000Y-127100000D01*
X214000000Y-127100000D02*
X214000000Y-127900002D01*
X214000000Y-116300000D02*
X214000000Y-106250000D01*
X214000000Y-127900002D02*
X214000000Y-116300000D01*
X210000000Y-123100000D02*
X214000000Y-119100000D01*
X214000000Y-119100000D02*
X214000000Y-116300000D01*
X206300000Y-135300000D02*
X208049999Y-133550001D01*
X208049999Y-133550001D02*
X208350001Y-133550001D01*
X208350001Y-133550001D02*
X214000000Y-127900002D01*
X204300000Y-123100000D02*
X207900000Y-123100000D01*
X208370000Y-100620000D02*
X214000000Y-106250000D01*
X208370000Y-98770000D02*
X208370000Y-100620000D01*
X207900000Y-116560000D02*
X204300000Y-116560000D01*
X207900000Y-116560000D02*
X210000000Y-116560000D01*
X210000000Y-116560000D02*
X211000000Y-115560000D01*
X211000000Y-115560000D02*
X211000000Y-109974873D01*
X206500000Y-112000000D02*
X206500000Y-114360000D01*
X206500000Y-114360000D02*
X204300000Y-116560000D01*
X206500000Y-112000000D02*
X206500000Y-115160000D01*
X206500000Y-115160000D02*
X207900000Y-116560000D01*
D19*
X208270000Y-96230000D02*
X207000000Y-97500000D01*
X207080001Y-97080001D02*
X207080001Y-97419999D01*
X206919999Y-97080001D02*
X207080001Y-97080001D01*
X207080001Y-97419999D02*
X208270000Y-96230000D01*
X208270000Y-96230000D02*
X208370000Y-96230000D01*
X206919999Y-96580001D02*
X206919999Y-97080001D01*
X206919999Y-97080001D02*
X206919999Y-101080001D01*
X206919999Y-96477920D02*
X206919999Y-96580001D01*
X206000000Y-101000000D02*
X206000000Y-99012284D01*
X206000000Y-99012284D02*
X206652928Y-98359356D01*
X206652928Y-98359356D02*
X206652928Y-96847072D01*
X206652928Y-96847072D02*
X206919999Y-96580001D01*
D18*
X206500000Y-101500000D02*
X206000000Y-101000000D01*
X211000000Y-106000000D02*
X206500000Y-101500000D01*
D19*
X208370000Y-96230000D02*
X207167919Y-96230000D01*
X207167919Y-96230000D02*
X206919999Y-96477920D01*
X206919999Y-101080001D02*
X206500000Y-101500000D01*
D18*
X208974873Y-112000000D02*
X211000000Y-109974873D01*
X206500000Y-112000000D02*
X208974873Y-112000000D01*
X211000000Y-109974873D02*
X211000000Y-106000000D01*
X208370000Y-96230000D02*
X210910000Y-96230000D01*
X204300000Y-125640000D02*
X204300000Y-128300000D01*
X204300000Y-128300000D02*
X206300000Y-130300000D01*
X207900000Y-125640000D02*
X207900000Y-128700000D01*
X207900000Y-128700000D02*
X206300000Y-130300000D01*
X201500000Y-125700000D02*
X201500000Y-125250000D01*
X201500000Y-129000000D02*
X201500000Y-125700000D01*
X204300000Y-125640000D02*
X202050000Y-125640000D01*
X202050000Y-125640000D02*
X201990000Y-125700000D01*
X201990000Y-125700000D02*
X201500000Y-125700000D01*
X207900000Y-125640000D02*
X204300000Y-125640000D01*
X203550000Y-130300000D02*
X201050010Y-130300000D01*
X206300000Y-130300000D02*
X203550000Y-130300000D01*
X204300000Y-119100000D02*
X202050000Y-119100000D01*
X202050000Y-119100000D02*
X201650000Y-119500000D01*
X201650000Y-119500000D02*
X201500000Y-119500000D01*
X201500000Y-118400000D02*
X201500000Y-119500000D01*
X201500000Y-110000000D02*
X201500000Y-118400000D01*
X202050000Y-119100000D02*
X201500000Y-118550000D01*
X201500000Y-118550000D02*
X201500000Y-118400000D01*
X207900000Y-119100000D02*
X204300000Y-119100000D01*
X231060000Y-136000000D02*
X231060000Y-132400000D01*
X229500000Y-142250000D02*
X229500000Y-137560000D01*
X229500000Y-137560000D02*
X231060000Y-136000000D01*
X212660000Y-132700000D02*
X212660000Y-136300000D01*
X240660000Y-136000000D02*
X240660000Y-132400000D01*
X248900000Y-136300000D02*
X248900000Y-132600000D01*
X249500000Y-139000000D02*
X249350000Y-139000000D01*
X249350000Y-139000000D02*
X248900000Y-138550000D01*
X248900000Y-138550000D02*
X248900000Y-136300000D01*
X248300000Y-127900000D02*
X252000000Y-127900000D01*
X252000000Y-127900000D02*
X253400000Y-127900000D01*
X253400000Y-127900000D02*
X258250000Y-132750000D01*
X252300000Y-111840000D02*
X248700000Y-111840000D01*
X220660000Y-132200000D02*
X220660000Y-113360000D01*
X220660000Y-113360000D02*
X218530000Y-111230000D01*
X218530000Y-111230000D02*
X218530000Y-98770000D01*
X252100000Y-121240000D02*
X248500000Y-121240000D01*
X258250000Y-122750000D02*
X253610000Y-122750000D01*
X253610000Y-122750000D02*
X252100000Y-121240000D01*
X258250000Y-112750000D02*
X253210000Y-112750000D01*
X253210000Y-112750000D02*
X252300000Y-111840000D01*
X239500000Y-142250000D02*
X239500000Y-137160000D01*
X239500000Y-137160000D02*
X240660000Y-136000000D01*
X209600000Y-139610000D02*
X209600000Y-142150000D01*
X209600000Y-142150000D02*
X209500000Y-142250000D01*
X212660000Y-136300000D02*
X212660000Y-136550000D01*
X212660000Y-136550000D02*
X209600000Y-139610000D01*
X220660000Y-135900000D02*
X220660000Y-136780000D01*
X220660000Y-136780000D02*
X219500000Y-137940000D01*
X220660000Y-132200000D02*
X220660000Y-135900000D01*
X201500000Y-108250000D02*
X201500000Y-110000000D01*
X206500000Y-107000000D02*
X203750000Y-107000000D01*
X203750000Y-107000000D02*
X201500000Y-109250000D01*
X201500000Y-109250000D02*
X201500000Y-110000000D01*
X201500000Y-130000000D02*
X201500000Y-129000000D01*
X201500000Y-136000000D02*
X201500000Y-130000000D01*
X201500000Y-128750000D02*
X201500000Y-130000000D01*
X201500000Y-119500000D02*
X201500000Y-125250000D01*
X201500000Y-124250000D02*
X201500000Y-119500000D01*
X219500000Y-142250000D02*
X219500000Y-137940000D01*
X249500000Y-142250000D02*
X249500000Y-139000000D01*
X223000000Y-147500000D02*
X226500000Y-147500000D01*
X221500000Y-147500000D02*
X223000000Y-147500000D01*
X219500000Y-142250000D02*
X219500000Y-145000000D01*
X219500000Y-145000000D02*
X222000000Y-147500000D01*
X222000000Y-147500000D02*
X223000000Y-147500000D01*
X216000000Y-147500000D02*
X218000000Y-147500000D01*
X212000000Y-147500000D02*
X216000000Y-147500000D01*
X219500000Y-145000000D02*
X217000000Y-147500000D01*
X217000000Y-147500000D02*
X216000000Y-147500000D01*
X262500000Y-109500000D02*
X262500000Y-104640000D01*
X262500000Y-114250000D02*
X262500000Y-109500000D01*
X258250000Y-112750000D02*
X261000000Y-112750000D01*
X261000000Y-112750000D02*
X262500000Y-111250000D01*
X262500000Y-111250000D02*
X262500000Y-109500000D01*
X262500000Y-104640000D02*
X256630000Y-98770000D01*
X201500000Y-127750000D02*
X201500000Y-129000000D01*
X201500000Y-137000000D02*
X201500000Y-136000000D01*
X212000000Y-147500000D02*
X209500000Y-147500000D01*
X209500000Y-147500000D02*
X201500000Y-139500000D01*
X201500000Y-139500000D02*
X201500000Y-136000000D01*
X209500000Y-142250000D02*
X206750000Y-142250000D01*
X206750000Y-142250000D02*
X201500000Y-137000000D01*
X205500000Y-107000000D02*
X202749999Y-107000001D01*
X202749999Y-107000001D02*
X201500000Y-108250000D01*
X258250000Y-122750000D02*
X261000001Y-122749999D01*
X261000001Y-122749999D02*
X262500000Y-121250000D01*
X262500000Y-121250000D02*
X262500000Y-114250000D01*
X262500000Y-125000000D02*
X262500000Y-132500000D01*
X262500000Y-124250000D02*
X262500000Y-125000000D01*
X261000000Y-112750000D02*
X262500000Y-114250000D01*
X262500000Y-114250000D02*
X262500000Y-125000000D01*
X262500000Y-132500000D02*
X262500000Y-134000000D01*
X258250000Y-132750000D02*
X262250000Y-132750000D01*
X262250000Y-132750000D02*
X262500000Y-132500000D01*
X257500000Y-139000000D02*
X257500000Y-143320002D01*
X257500000Y-136250000D02*
X257500000Y-139000000D01*
X262500000Y-134000000D02*
X257500000Y-139000000D01*
X258250000Y-122750000D02*
X261000000Y-122750000D01*
X261000000Y-122750000D02*
X262500000Y-124250000D01*
X252000000Y-147500000D02*
X247000000Y-147500000D01*
X253320002Y-147500000D02*
X252000000Y-147500000D01*
X249500000Y-142250000D02*
X249500000Y-145000000D01*
X249500000Y-145000000D02*
X252000000Y-147500000D01*
X257500000Y-143320002D02*
X253320002Y-147500000D01*
X258250000Y-132750000D02*
X258250000Y-135500000D01*
X258250000Y-135500000D02*
X257500000Y-136250000D01*
X218000000Y-147500000D02*
X221500000Y-147500000D01*
X219500000Y-142250000D02*
X219500000Y-146000000D01*
X219500000Y-146000000D02*
X218000000Y-147500000D01*
X219500000Y-142250000D02*
X219500000Y-145500000D01*
X219500000Y-145500000D02*
X221500000Y-147500000D01*
X226500000Y-147500000D02*
X232500000Y-147500000D01*
X229500000Y-142250000D02*
X229500000Y-145000000D01*
X229500000Y-145000000D02*
X227000000Y-147500000D01*
X227000000Y-147500000D02*
X226500000Y-147500000D01*
X232500000Y-147500000D02*
X237500000Y-147500000D01*
X229500000Y-145000000D02*
X232000000Y-147500000D01*
X232000000Y-147500000D02*
X232500000Y-147500000D01*
X237500000Y-147500000D02*
X244500000Y-147500000D01*
X239500000Y-142250000D02*
X239500000Y-145000000D01*
X239500000Y-145000000D02*
X237500000Y-147000000D01*
X237500000Y-147000000D02*
X237500000Y-147500000D01*
X244500000Y-147500000D02*
X247000000Y-147500000D01*
X239500000Y-145000000D02*
X242000000Y-147500000D01*
X242000000Y-147500000D02*
X244500000Y-147500000D01*
X247000000Y-147500000D02*
X249500000Y-145000000D01*
X209500000Y-145000000D02*
X212000000Y-147500000D01*
X209500000Y-142250000D02*
X209500000Y-145000000D01*
X238850000Y-123649776D02*
X247800224Y-132600000D01*
X247800224Y-132600000D02*
X248900000Y-132600000D01*
X238850000Y-98770000D02*
X238850000Y-123649776D01*
X243390001Y-126068442D02*
X243390001Y-100724212D01*
X247221569Y-129900010D02*
X243390001Y-126068442D01*
X251440000Y-136300000D02*
X253540000Y-136300000D01*
X253540000Y-136300000D02*
X254500000Y-137260000D01*
X254500000Y-137260000D02*
X254500000Y-139775127D01*
X251440000Y-132600000D02*
X251440000Y-136300000D01*
X254500000Y-142250000D02*
X254500000Y-139775127D01*
X251440000Y-132600000D02*
X251440000Y-130500000D01*
X243390001Y-100724212D02*
X243930000Y-100184213D01*
X243930000Y-100184213D02*
X243930000Y-98770000D01*
X250840010Y-129900010D02*
X247221569Y-129900010D01*
X251440000Y-130500000D02*
X250840010Y-129900010D01*
X256100000Y-127360000D02*
X257860000Y-127360000D01*
X257860000Y-127360000D02*
X258250000Y-127750000D01*
X252000000Y-125360000D02*
X254100000Y-125360000D01*
X254100000Y-125360000D02*
X256100000Y-127360000D01*
X248300000Y-125360000D02*
X252000000Y-125360000D01*
X246470000Y-98770000D02*
X246470000Y-100184213D01*
X246470000Y-100184213D02*
X244949980Y-101704233D01*
X244949980Y-101704233D02*
X244949980Y-124109980D01*
X244949980Y-124109980D02*
X246200000Y-125360000D01*
X246200000Y-125360000D02*
X248300000Y-125360000D01*
X258250000Y-127750000D02*
X257400000Y-126900000D01*
X248700000Y-108000000D02*
X254090000Y-102610000D01*
X254090000Y-102610000D02*
X254090000Y-98770000D01*
X248700000Y-109300000D02*
X248700000Y-108000000D01*
X254090000Y-103590000D02*
X254090000Y-106010000D01*
X254090000Y-106010000D02*
X250800000Y-109300000D01*
X250800000Y-109300000D02*
X248700000Y-109300000D01*
X254090000Y-103590000D02*
X252300000Y-105380000D01*
X252300000Y-105380000D02*
X252300000Y-109300000D01*
X252300000Y-109300000D02*
X248700000Y-109300000D01*
X258250000Y-107750000D02*
X253850000Y-107750000D01*
X253850000Y-107750000D02*
X252300000Y-109300000D01*
X258250000Y-107750000D02*
X254090000Y-103590000D01*
X254090000Y-103590000D02*
X254090000Y-98770000D01*
X215200000Y-136300000D02*
X215200000Y-134200000D01*
X215200000Y-134200000D02*
X215990000Y-133410000D01*
X215990000Y-133410000D02*
X215990000Y-100184213D01*
X215990000Y-100184213D02*
X215990000Y-98770000D01*
X214500000Y-142250000D02*
X215200000Y-141550000D01*
X215200000Y-141550000D02*
X215200000Y-136300000D01*
X214500000Y-142250000D02*
X216249999Y-140500001D01*
X216249999Y-99029999D02*
X215990000Y-98770000D01*
X223200000Y-112600000D02*
X221070000Y-110470000D01*
X221070000Y-110470000D02*
X221070000Y-100270010D01*
X223200000Y-132200000D02*
X223200000Y-112600000D01*
X223200000Y-135900000D02*
X223200000Y-138000000D01*
X223200000Y-138000000D02*
X224500000Y-139300000D01*
X224500000Y-139300000D02*
X224500000Y-139775127D01*
X223200000Y-132200000D02*
X223200000Y-135900000D01*
X224500000Y-142250000D02*
X224500000Y-139775127D01*
X221070000Y-99972081D02*
X221070000Y-98770000D01*
X233600000Y-132400000D02*
X233600000Y-109180002D01*
X233600000Y-109180002D02*
X223610000Y-99190002D01*
X223610000Y-99190002D02*
X223610000Y-98770000D01*
X233600000Y-136000000D02*
X233600000Y-132400000D01*
X234500000Y-142250000D02*
X234500000Y-136900000D01*
X234500000Y-136900000D02*
X233600000Y-136000000D01*
X243200000Y-136000000D02*
X243200000Y-132400000D01*
X244500000Y-142250000D02*
X244500000Y-137300000D01*
X244500000Y-137300000D02*
X243200000Y-136000000D01*
X235100011Y-108558678D02*
X226150000Y-99608668D01*
X243200000Y-132400000D02*
X243200000Y-130121110D01*
X235100011Y-122021122D02*
X235100011Y-108558678D01*
X243200000Y-130121110D02*
X235100011Y-122021122D01*
X226150000Y-99608668D02*
X226150000Y-98770000D01*
X258250000Y-117750000D02*
X249650000Y-117750000D01*
X249650000Y-117750000D02*
X248500000Y-116600000D01*
X248500000Y-116600000D02*
X246449990Y-114549990D01*
X248500000Y-118700000D02*
X248500000Y-116600000D01*
X246449990Y-114549990D02*
X246449990Y-107550008D01*
X246449990Y-107550008D02*
X249010000Y-104989998D01*
X249010000Y-104989998D02*
X249010000Y-98770000D01*
X252100000Y-118700000D02*
X248500000Y-118700000D01*
X258250000Y-117750000D02*
X253050000Y-117750000D01*
X253050000Y-117750000D02*
X252100000Y-118700000D01*
D20*
G36*
X258054351Y-107730504D02*
G01*
X252284366Y-109173000D01*
X248835186Y-109173000D01*
X248923517Y-107759696D01*
X253794407Y-103375894D01*
X258054351Y-107730504D01*
X258054351Y-107730504D01*
G37*
X258054351Y-107730504D02*
X252284366Y-109173000D01*
X248835186Y-109173000D01*
X248923517Y-107759696D01*
X253794407Y-103375894D01*
X258054351Y-107730504D01*
G36*
X207885567Y-129489237D02*
G01*
X202310432Y-130354344D01*
X201743151Y-125627000D01*
X208356571Y-125627000D01*
X207885567Y-129489237D01*
X207885567Y-129489237D01*
G37*
X207885567Y-129489237D02*
X202310432Y-130354344D01*
X201743151Y-125627000D01*
X208356571Y-125627000D01*
X207885567Y-129489237D01*
G36*
X210970009Y-115730873D02*
G01*
X209762391Y-116474023D01*
X206322708Y-116572300D01*
X203517321Y-115450144D01*
X206487008Y-112193067D01*
X210683512Y-108854939D01*
X210970009Y-115730873D01*
X210970009Y-115730873D01*
G37*
X210970009Y-115730873D02*
X209762391Y-116474023D01*
X206322708Y-116572300D01*
X203517321Y-115450144D01*
X206487008Y-112193067D01*
X210683512Y-108854939D01*
X210970009Y-115730873D01*
G36*
X213868938Y-126316568D02*
G01*
X210191486Y-123098797D01*
X213777002Y-119881027D01*
X213868938Y-126316568D01*
X213868938Y-126316568D01*
G37*
X213868938Y-126316568D02*
X210191486Y-123098797D01*
X213777002Y-119881027D01*
X213868938Y-126316568D01*
G36*
X202415000Y-125763034D02*
G01*
X202415000Y-125767002D01*
X202537995Y-125767002D01*
X202578605Y-125768312D01*
X202459876Y-126020434D01*
X202484256Y-126142398D01*
X202612354Y-126438206D01*
X202795700Y-126703340D01*
X203027248Y-126927610D01*
X203298100Y-127102398D01*
X203597847Y-127220987D01*
X203914970Y-127278819D01*
X204173000Y-127121016D01*
X204173000Y-125819744D01*
X204395905Y-125826934D01*
X204403526Y-125826951D01*
X204427000Y-125826299D01*
X204427000Y-127121016D01*
X204685030Y-127278819D01*
X205002153Y-127220987D01*
X205301900Y-127102398D01*
X205572752Y-126927610D01*
X205804300Y-126703340D01*
X205987646Y-126438206D01*
X206100000Y-126178755D01*
X206212354Y-126438206D01*
X206395700Y-126703340D01*
X206627248Y-126927610D01*
X206898100Y-127102398D01*
X207197847Y-127220987D01*
X207514970Y-127278819D01*
X207772998Y-127121017D01*
X207772998Y-127275000D01*
X207800054Y-127275000D01*
X207772336Y-127912511D01*
X206585750Y-127915000D01*
X206427000Y-128073750D01*
X206427000Y-130117224D01*
X206173000Y-130125418D01*
X206173000Y-128073750D01*
X206014250Y-127915000D01*
X204550000Y-127911928D01*
X204425518Y-127924188D01*
X204305820Y-127960498D01*
X204195506Y-128019463D01*
X204098815Y-128098815D01*
X204019463Y-128195506D01*
X203960498Y-128305820D01*
X203924188Y-128425518D01*
X203911928Y-128550000D01*
X203915000Y-130014250D01*
X204073748Y-130172998D01*
X203915000Y-130172998D01*
X203915000Y-130198256D01*
X201719066Y-130269093D01*
X201435463Y-125731436D01*
X202415000Y-125763034D01*
X202415000Y-125763034D01*
G37*
X202415000Y-125763034D02*
X202415000Y-125767002D01*
X202537995Y-125767002D01*
X202578605Y-125768312D01*
X202459876Y-126020434D01*
X202484256Y-126142398D01*
X202612354Y-126438206D01*
X202795700Y-126703340D01*
X203027248Y-126927610D01*
X203298100Y-127102398D01*
X203597847Y-127220987D01*
X203914970Y-127278819D01*
X204173000Y-127121016D01*
X204173000Y-125819744D01*
X204395905Y-125826934D01*
X204403526Y-125826951D01*
X204427000Y-125826299D01*
X204427000Y-127121016D01*
X204685030Y-127278819D01*
X205002153Y-127220987D01*
X205301900Y-127102398D01*
X205572752Y-126927610D01*
X205804300Y-126703340D01*
X205987646Y-126438206D01*
X206100000Y-126178755D01*
X206212354Y-126438206D01*
X206395700Y-126703340D01*
X206627248Y-126927610D01*
X206898100Y-127102398D01*
X207197847Y-127220987D01*
X207514970Y-127278819D01*
X207772998Y-127121017D01*
X207772998Y-127275000D01*
X207800054Y-127275000D01*
X207772336Y-127912511D01*
X206585750Y-127915000D01*
X206427000Y-128073750D01*
X206427000Y-130117224D01*
X206173000Y-130125418D01*
X206173000Y-128073750D01*
X206014250Y-127915000D01*
X204550000Y-127911928D01*
X204425518Y-127924188D01*
X204305820Y-127960498D01*
X204195506Y-128019463D01*
X204098815Y-128098815D01*
X204019463Y-128195506D01*
X203960498Y-128305820D01*
X203924188Y-128425518D01*
X203911928Y-128550000D01*
X203915000Y-130014250D01*
X204073748Y-130172998D01*
X203915000Y-130172998D01*
X203915000Y-130198256D01*
X201719066Y-130269093D01*
X201435463Y-125731436D01*
X202415000Y-125763034D01*
G36*
X207864750Y-125787000D02*
G01*
X207773000Y-125787000D01*
X207773000Y-125767000D01*
X207753000Y-125767000D01*
X207753000Y-125733910D01*
X207867196Y-125730738D01*
X207864750Y-125787000D01*
X207864750Y-125787000D01*
G37*
X207864750Y-125787000D02*
X207773000Y-125787000D01*
X207773000Y-125767000D01*
X207753000Y-125767000D01*
X207753000Y-125733910D01*
X207867196Y-125730738D01*
X207864750Y-125787000D01*
G36*
X200911304Y-108203406D02*
G01*
X200773992Y-108020323D01*
X202250097Y-106790236D01*
X200911304Y-108203406D01*
X200911304Y-108203406D01*
G37*
X200911304Y-108203406D02*
X200773992Y-108020323D01*
X202250097Y-106790236D01*
X200911304Y-108203406D01*
G36*
X263873000Y-104558217D02*
G01*
X263873000Y-104582394D01*
X262747726Y-104668954D01*
X257846493Y-99865746D01*
X257899987Y-99812252D01*
X258069619Y-99558380D01*
X263873000Y-104558217D01*
X263873000Y-104558217D01*
G37*
X263873000Y-104558217D02*
X263873000Y-104582394D01*
X262747726Y-104668954D01*
X257846493Y-99865746D01*
X257899987Y-99812252D01*
X258069619Y-99558380D01*
X263873000Y-104558217D01*
G36*
X201373001Y-139499597D02*
G01*
X201375362Y-139524381D01*
X201382514Y-139548228D01*
X201394180Y-139570222D01*
X201411886Y-139591460D01*
X209562550Y-147443929D01*
X209317429Y-148751238D01*
X200685000Y-140797764D01*
X200685000Y-108127000D01*
X201472597Y-108127000D01*
X201373001Y-139499597D01*
X201373001Y-139499597D01*
G37*
X201373001Y-139499597D02*
X201375362Y-139524381D01*
X201382514Y-139548228D01*
X201394180Y-139570222D01*
X201411886Y-139591460D01*
X209562550Y-147443929D01*
X209317429Y-148751238D01*
X200685000Y-140797764D01*
X200685000Y-108127000D01*
X201472597Y-108127000D01*
X201373001Y-139499597D01*
G36*
X263873000Y-104608955D02*
G01*
X263873000Y-148343627D01*
X263640325Y-148628914D01*
X263345276Y-148873000D01*
X263126150Y-148873000D01*
X263117952Y-147651471D01*
X263259085Y-147440250D01*
X263408718Y-147079003D01*
X263485000Y-146695505D01*
X263485000Y-146304495D01*
X263408718Y-145920997D01*
X263259085Y-145559750D01*
X263102339Y-145325163D01*
X262827997Y-104448186D01*
X263873000Y-104608955D01*
X263873000Y-104608955D01*
G37*
X263873000Y-104608955D02*
X263873000Y-148343627D01*
X263640325Y-148628914D01*
X263345276Y-148873000D01*
X263126150Y-148873000D01*
X263117952Y-147651471D01*
X263259085Y-147440250D01*
X263408718Y-147079003D01*
X263485000Y-146695505D01*
X263485000Y-146304495D01*
X263408718Y-145920997D01*
X263259085Y-145559750D01*
X263102339Y-145325163D01*
X262827997Y-104448186D01*
X263873000Y-104608955D01*
G36*
X260087248Y-147894463D02*
G01*
X260234636Y-148041851D01*
X260559750Y-148259085D01*
X260920997Y-148408718D01*
X261304495Y-148485000D01*
X261695505Y-148485000D01*
X262079003Y-148408718D01*
X262440250Y-148259085D01*
X262765364Y-148041851D01*
X262873000Y-147934215D01*
X262873000Y-148873000D01*
X209427000Y-148873000D01*
X209427000Y-147328427D01*
X260087248Y-147894463D01*
X260087248Y-147894463D01*
G37*
X260087248Y-147894463D02*
X260234636Y-148041851D01*
X260559750Y-148259085D01*
X260920997Y-148408718D01*
X261304495Y-148485000D01*
X261695505Y-148485000D01*
X262079003Y-148408718D01*
X262440250Y-148259085D01*
X262765364Y-148041851D01*
X262873000Y-147934215D01*
X262873000Y-148873000D01*
X209427000Y-148873000D01*
X209427000Y-147328427D01*
X260087248Y-147894463D01*
G36*
X262873000Y-145065785D02*
G01*
X262765364Y-144958149D01*
X262440250Y-144740915D01*
X262079003Y-144591282D01*
X261695505Y-144515000D01*
X261304495Y-144515000D01*
X260920997Y-144591282D01*
X260559750Y-144740915D01*
X260234636Y-144958149D01*
X259958149Y-145234636D01*
X259740915Y-145559750D01*
X259591282Y-145920997D01*
X259515000Y-146304495D01*
X259515000Y-146695505D01*
X259591282Y-147079003D01*
X259740915Y-147440250D01*
X259958149Y-147765364D01*
X260035214Y-147842429D01*
X253589778Y-147775981D01*
X257692777Y-143386726D01*
X257707914Y-143366960D01*
X257718903Y-143344620D01*
X257725324Y-143320566D01*
X257727000Y-143300000D01*
X257727000Y-138559483D01*
X262873000Y-134271150D01*
X262873000Y-145065785D01*
X262873000Y-145065785D01*
G37*
X262873000Y-145065785D02*
X262765364Y-144958149D01*
X262440250Y-144740915D01*
X262079003Y-144591282D01*
X261695505Y-144515000D01*
X261304495Y-144515000D01*
X260920997Y-144591282D01*
X260559750Y-144740915D01*
X260234636Y-144958149D01*
X259958149Y-145234636D01*
X259740915Y-145559750D01*
X259591282Y-145920997D01*
X259515000Y-146304495D01*
X259515000Y-146695505D01*
X259591282Y-147079003D01*
X259740915Y-147440250D01*
X259958149Y-147765364D01*
X260035214Y-147842429D01*
X253589778Y-147775981D01*
X257692777Y-143386726D01*
X257707914Y-143366960D01*
X257718903Y-143344620D01*
X257725324Y-143320566D01*
X257727000Y-143300000D01*
X257727000Y-138559483D01*
X262873000Y-134271150D01*
X262873000Y-145065785D01*
G36*
X208027381Y-96293013D02*
G01*
X206910197Y-97410197D01*
X206894403Y-97429443D01*
X206882667Y-97451399D01*
X206875440Y-97475224D01*
X206873049Y-97496474D01*
X206774008Y-101061964D01*
X206329610Y-101773000D01*
X200852606Y-101773000D01*
X200685000Y-101605394D01*
X200685000Y-97304495D01*
X201415000Y-97304495D01*
X201415000Y-97695505D01*
X201491282Y-98079003D01*
X201640915Y-98440250D01*
X201858149Y-98765364D01*
X202134636Y-99041851D01*
X202459750Y-99259085D01*
X202820997Y-99408718D01*
X203204495Y-99485000D01*
X203595505Y-99485000D01*
X203979003Y-99408718D01*
X204340250Y-99259085D01*
X204665364Y-99041851D01*
X204941851Y-98765364D01*
X205159085Y-98440250D01*
X205308718Y-98079003D01*
X205385000Y-97695505D01*
X205385000Y-97304495D01*
X205308718Y-96920997D01*
X205159085Y-96559750D01*
X204941851Y-96234636D01*
X204665364Y-95958149D01*
X204340250Y-95740915D01*
X203979003Y-95591282D01*
X203595505Y-95515000D01*
X203204495Y-95515000D01*
X202820997Y-95591282D01*
X202459750Y-95740915D01*
X202134636Y-95958149D01*
X201858149Y-96234636D01*
X201640915Y-96559750D01*
X201491282Y-96920997D01*
X201415000Y-97304495D01*
X200685000Y-97304495D01*
X200685000Y-97033505D01*
X200732312Y-96550984D01*
X200862714Y-96119070D01*
X201074524Y-95720715D01*
X201359675Y-95371086D01*
X201707303Y-95083503D01*
X202104177Y-94868914D01*
X202535161Y-94735502D01*
X203015654Y-94685000D01*
X206660571Y-94685000D01*
X208027381Y-96293013D01*
X208027381Y-96293013D01*
G37*
X208027381Y-96293013D02*
X206910197Y-97410197D01*
X206894403Y-97429443D01*
X206882667Y-97451399D01*
X206875440Y-97475224D01*
X206873049Y-97496474D01*
X206774008Y-101061964D01*
X206329610Y-101773000D01*
X200852606Y-101773000D01*
X200685000Y-101605394D01*
X200685000Y-97304495D01*
X201415000Y-97304495D01*
X201415000Y-97695505D01*
X201491282Y-98079003D01*
X201640915Y-98440250D01*
X201858149Y-98765364D01*
X202134636Y-99041851D01*
X202459750Y-99259085D01*
X202820997Y-99408718D01*
X203204495Y-99485000D01*
X203595505Y-99485000D01*
X203979003Y-99408718D01*
X204340250Y-99259085D01*
X204665364Y-99041851D01*
X204941851Y-98765364D01*
X205159085Y-98440250D01*
X205308718Y-98079003D01*
X205385000Y-97695505D01*
X205385000Y-97304495D01*
X205308718Y-96920997D01*
X205159085Y-96559750D01*
X204941851Y-96234636D01*
X204665364Y-95958149D01*
X204340250Y-95740915D01*
X203979003Y-95591282D01*
X203595505Y-95515000D01*
X203204495Y-95515000D01*
X202820997Y-95591282D01*
X202459750Y-95740915D01*
X202134636Y-95958149D01*
X201858149Y-96234636D01*
X201640915Y-96559750D01*
X201491282Y-96920997D01*
X201415000Y-97304495D01*
X200685000Y-97304495D01*
X200685000Y-97033505D01*
X200732312Y-96550984D01*
X200862714Y-96119070D01*
X201074524Y-95720715D01*
X201359675Y-95371086D01*
X201707303Y-95083503D01*
X202104177Y-94868914D01*
X202535161Y-94735502D01*
X203015654Y-94685000D01*
X206660571Y-94685000D01*
X208027381Y-96293013D01*
G36*
X207111928Y-142791534D02*
G01*
X207111928Y-144000000D01*
X207124188Y-144124482D01*
X207160498Y-144244180D01*
X207219463Y-144354494D01*
X207298815Y-144451185D01*
X207395506Y-144530537D01*
X207505820Y-144589502D01*
X207625518Y-144625812D01*
X207750000Y-144638072D01*
X208958466Y-144638072D01*
X211693394Y-147373000D01*
X209552606Y-147373000D01*
X201627000Y-139447394D01*
X201627000Y-137306606D01*
X207111928Y-142791534D01*
X207111928Y-142791534D01*
G37*
X207111928Y-142791534D02*
X207111928Y-144000000D01*
X207124188Y-144124482D01*
X207160498Y-144244180D01*
X207219463Y-144354494D01*
X207298815Y-144451185D01*
X207395506Y-144530537D01*
X207505820Y-144589502D01*
X207625518Y-144625812D01*
X207750000Y-144638072D01*
X208958466Y-144638072D01*
X211693394Y-147373000D01*
X209552606Y-147373000D01*
X201627000Y-139447394D01*
X201627000Y-137306606D01*
X207111928Y-142791534D01*
G36*
X262373000Y-124119000D02*
G01*
X261182151Y-122531201D01*
X262373000Y-121737301D01*
X262373000Y-124119000D01*
X262373000Y-124119000D01*
G37*
X262373000Y-124119000D02*
X261182151Y-122531201D01*
X262373000Y-121737301D01*
X262373000Y-124119000D01*
G36*
X262373000Y-114119000D02*
G01*
X261167688Y-112511918D01*
X262373000Y-111306606D01*
X262373000Y-114119000D01*
X262373000Y-114119000D01*
G37*
X262373000Y-114119000D02*
X261167688Y-112511918D01*
X262373000Y-111306606D01*
X262373000Y-114119000D01*
G36*
X262373000Y-133943439D02*
G01*
X257699619Y-138149482D01*
X258124534Y-136024907D01*
X258127000Y-136000000D01*
X258127000Y-134052606D01*
X258377000Y-133802606D01*
X258377000Y-134976250D01*
X258535750Y-135135000D01*
X260000000Y-135138072D01*
X260124482Y-135125812D01*
X260244180Y-135089502D01*
X260354494Y-135030537D01*
X260451185Y-134951185D01*
X260530537Y-134854494D01*
X260589502Y-134744180D01*
X260625812Y-134624482D01*
X260638072Y-134500000D01*
X260635000Y-133035750D01*
X260476250Y-132877000D01*
X259302606Y-132877000D01*
X259552606Y-132627000D01*
X262373000Y-132627000D01*
X262373000Y-133943439D01*
X262373000Y-133943439D01*
G37*
X262373000Y-133943439D02*
X257699619Y-138149482D01*
X258124534Y-136024907D01*
X258127000Y-136000000D01*
X258127000Y-134052606D01*
X258377000Y-133802606D01*
X258377000Y-134976250D01*
X258535750Y-135135000D01*
X260000000Y-135138072D01*
X260124482Y-135125812D01*
X260244180Y-135089502D01*
X260354494Y-135030537D01*
X260451185Y-134951185D01*
X260530537Y-134854494D01*
X260589502Y-134744180D01*
X260625812Y-134624482D01*
X260638072Y-134500000D01*
X260635000Y-133035750D01*
X260476250Y-132877000D01*
X259302606Y-132877000D01*
X259552606Y-132627000D01*
X262373000Y-132627000D01*
X262373000Y-133943439D01*
G36*
X251235761Y-147373000D02*
G01*
X247306606Y-147373000D01*
X249489470Y-145190136D01*
X251235761Y-147373000D01*
X251235761Y-147373000D01*
G37*
X251235761Y-147373000D02*
X247306606Y-147373000D01*
X249489470Y-145190136D01*
X251235761Y-147373000D01*
G36*
X241235761Y-147373000D02*
G01*
X237764239Y-147373000D01*
X239500000Y-145203299D01*
X241235761Y-147373000D01*
X241235761Y-147373000D01*
G37*
X241235761Y-147373000D02*
X237764239Y-147373000D01*
X239500000Y-145203299D01*
X241235761Y-147373000D01*
G36*
X231235761Y-147373000D02*
G01*
X227764239Y-147373000D01*
X229500000Y-145203299D01*
X231235761Y-147373000D01*
X231235761Y-147373000D01*
G37*
X231235761Y-147373000D02*
X227764239Y-147373000D01*
X229500000Y-145203299D01*
X231235761Y-147373000D01*
G36*
X221637951Y-147373000D02*
G01*
X217806606Y-147373000D01*
X219509426Y-145670180D01*
X221637951Y-147373000D01*
X221637951Y-147373000D01*
G37*
X221637951Y-147373000D02*
X217806606Y-147373000D01*
X219509426Y-145670180D01*
X221637951Y-147373000D01*
M02*
