G04 #@! TF.GenerationSoftware,KiCad,Pcbnew,(5.1.2)-2*
G04 #@! TF.CreationDate,2019-12-04T01:20:50+01:00*
G04 #@! TF.ProjectId,raspberrypi-gpio-40pin,72617370-6265-4727-9279-70692d677069,rev?*
G04 #@! TF.SameCoordinates,Original*
G04 #@! TF.FileFunction,Legend,Bot*
G04 #@! TF.FilePolarity,Positive*
%FSLAX46Y46*%
G04 Gerber Fmt 4.6, Leading zero omitted, Abs format (unit mm)*
G04 Created by KiCad (PCBNEW (5.1.2)-2) date 2019-12-04 01:20:50*
%MOMM*%
%LPD*%
G04 APERTURE LIST*
%ADD10C,0.150000*%
%ADD11C,0.120000*%
G04 APERTURE END LIST*
D10*
X240804761Y-106602380D02*
X240900000Y-106554761D01*
X240947619Y-106459523D01*
X240947619Y-105602380D01*
X240042857Y-106554761D02*
X240138095Y-106602380D01*
X240328571Y-106602380D01*
X240423809Y-106554761D01*
X240471428Y-106459523D01*
X240471428Y-106078571D01*
X240423809Y-105983333D01*
X240328571Y-105935714D01*
X240138095Y-105935714D01*
X240042857Y-105983333D01*
X239995238Y-106078571D01*
X239995238Y-106173809D01*
X240471428Y-106269047D01*
X239614285Y-106554761D02*
X239519047Y-106602380D01*
X239328571Y-106602380D01*
X239233333Y-106554761D01*
X239185714Y-106459523D01*
X239185714Y-106411904D01*
X239233333Y-106316666D01*
X239328571Y-106269047D01*
X239471428Y-106269047D01*
X239566666Y-106221428D01*
X239614285Y-106126190D01*
X239614285Y-106078571D01*
X239566666Y-105983333D01*
X239471428Y-105935714D01*
X239328571Y-105935714D01*
X239233333Y-105983333D01*
X237995238Y-106602380D02*
X237995238Y-105935714D01*
X237995238Y-106126190D02*
X237947619Y-106030952D01*
X237900000Y-105983333D01*
X237804761Y-105935714D01*
X237709523Y-105935714D01*
X236947619Y-106602380D02*
X236947619Y-106078571D01*
X236995238Y-105983333D01*
X237090476Y-105935714D01*
X237280952Y-105935714D01*
X237376190Y-105983333D01*
X236947619Y-106554761D02*
X237042857Y-106602380D01*
X237280952Y-106602380D01*
X237376190Y-106554761D01*
X237423809Y-106459523D01*
X237423809Y-106364285D01*
X237376190Y-106269047D01*
X237280952Y-106221428D01*
X237042857Y-106221428D01*
X236947619Y-106173809D01*
X236519047Y-106554761D02*
X236423809Y-106602380D01*
X236233333Y-106602380D01*
X236138095Y-106554761D01*
X236090476Y-106459523D01*
X236090476Y-106411904D01*
X236138095Y-106316666D01*
X236233333Y-106269047D01*
X236376190Y-106269047D01*
X236471428Y-106221428D01*
X236519047Y-106126190D01*
X236519047Y-106078571D01*
X236471428Y-105983333D01*
X236376190Y-105935714D01*
X236233333Y-105935714D01*
X236138095Y-105983333D01*
X235661904Y-105935714D02*
X235661904Y-106935714D01*
X235661904Y-105983333D02*
X235566666Y-105935714D01*
X235376190Y-105935714D01*
X235280952Y-105983333D01*
X235233333Y-106030952D01*
X235185714Y-106126190D01*
X235185714Y-106411904D01*
X235233333Y-106507142D01*
X235280952Y-106554761D01*
X235376190Y-106602380D01*
X235566666Y-106602380D01*
X235661904Y-106554761D01*
X234757142Y-106602380D02*
X234757142Y-105602380D01*
X234757142Y-105983333D02*
X234661904Y-105935714D01*
X234471428Y-105935714D01*
X234376190Y-105983333D01*
X234328571Y-106030952D01*
X234280952Y-106126190D01*
X234280952Y-106411904D01*
X234328571Y-106507142D01*
X234376190Y-106554761D01*
X234471428Y-106602380D01*
X234661904Y-106602380D01*
X234757142Y-106554761D01*
X233471428Y-106554761D02*
X233566666Y-106602380D01*
X233757142Y-106602380D01*
X233852380Y-106554761D01*
X233900000Y-106459523D01*
X233900000Y-106078571D01*
X233852380Y-105983333D01*
X233757142Y-105935714D01*
X233566666Y-105935714D01*
X233471428Y-105983333D01*
X233423809Y-106078571D01*
X233423809Y-106173809D01*
X233900000Y-106269047D01*
X232995238Y-106602380D02*
X232995238Y-105935714D01*
X232995238Y-106126190D02*
X232947619Y-106030952D01*
X232900000Y-105983333D01*
X232804761Y-105935714D01*
X232709523Y-105935714D01*
X232376190Y-106602380D02*
X232376190Y-105935714D01*
X232376190Y-106126190D02*
X232328571Y-106030952D01*
X232280952Y-105983333D01*
X232185714Y-105935714D01*
X232090476Y-105935714D01*
X231852380Y-105935714D02*
X231614285Y-106602380D01*
X231376190Y-105935714D02*
X231614285Y-106602380D01*
X231709523Y-106840476D01*
X231757142Y-106888095D01*
X231852380Y-106935714D01*
X231042857Y-106554761D02*
X230947619Y-106602380D01*
X230757142Y-106602380D01*
X230661904Y-106554761D01*
X230614285Y-106459523D01*
X230614285Y-106411904D01*
X230661904Y-106316666D01*
X230757142Y-106269047D01*
X230900000Y-106269047D01*
X230995238Y-106221428D01*
X231042857Y-106126190D01*
X231042857Y-106078571D01*
X230995238Y-105983333D01*
X230900000Y-105935714D01*
X230757142Y-105935714D01*
X230661904Y-105983333D01*
X229471428Y-106554761D02*
X229376190Y-106602380D01*
X229185714Y-106602380D01*
X229090476Y-106554761D01*
X229042857Y-106459523D01*
X229042857Y-106411904D01*
X229090476Y-106316666D01*
X229185714Y-106269047D01*
X229328571Y-106269047D01*
X229423809Y-106221428D01*
X229471428Y-106126190D01*
X229471428Y-106078571D01*
X229423809Y-105983333D01*
X229328571Y-105935714D01*
X229185714Y-105935714D01*
X229090476Y-105983333D01*
X228471428Y-106602380D02*
X228566666Y-106554761D01*
X228614285Y-106507142D01*
X228661904Y-106411904D01*
X228661904Y-106126190D01*
X228614285Y-106030952D01*
X228566666Y-105983333D01*
X228471428Y-105935714D01*
X228328571Y-105935714D01*
X228233333Y-105983333D01*
X228185714Y-106030952D01*
X228138095Y-106126190D01*
X228138095Y-106411904D01*
X228185714Y-106507142D01*
X228233333Y-106554761D01*
X228328571Y-106602380D01*
X228471428Y-106602380D01*
X227709523Y-105935714D02*
X227709523Y-106602380D01*
X227709523Y-106030952D02*
X227661904Y-105983333D01*
X227566666Y-105935714D01*
X227423809Y-105935714D01*
X227328571Y-105983333D01*
X227280952Y-106078571D01*
X227280952Y-106602380D01*
X226947619Y-105935714D02*
X226566666Y-105935714D01*
X226804761Y-105602380D02*
X226804761Y-106459523D01*
X226757142Y-106554761D01*
X226661904Y-106602380D01*
X226566666Y-106602380D01*
X225042857Y-106602380D02*
X225042857Y-105602380D01*
X225042857Y-106554761D02*
X225138095Y-106602380D01*
X225328571Y-106602380D01*
X225423809Y-106554761D01*
X225471428Y-106507142D01*
X225519047Y-106411904D01*
X225519047Y-106126190D01*
X225471428Y-106030952D01*
X225423809Y-105983333D01*
X225328571Y-105935714D01*
X225138095Y-105935714D01*
X225042857Y-105983333D01*
X224185714Y-106554761D02*
X224280952Y-106602380D01*
X224471428Y-106602380D01*
X224566666Y-106554761D01*
X224614285Y-106459523D01*
X224614285Y-106078571D01*
X224566666Y-105983333D01*
X224471428Y-105935714D01*
X224280952Y-105935714D01*
X224185714Y-105983333D01*
X224138095Y-106078571D01*
X224138095Y-106173809D01*
X224614285Y-106269047D01*
X222804761Y-106602380D02*
X222900000Y-106554761D01*
X222947619Y-106459523D01*
X222947619Y-105602380D01*
X221995238Y-106602380D02*
X221995238Y-106078571D01*
X222042857Y-105983333D01*
X222138095Y-105935714D01*
X222328571Y-105935714D01*
X222423809Y-105983333D01*
X221995238Y-106554761D02*
X222090476Y-106602380D01*
X222328571Y-106602380D01*
X222423809Y-106554761D01*
X222471428Y-106459523D01*
X222471428Y-106364285D01*
X222423809Y-106269047D01*
X222328571Y-106221428D01*
X222090476Y-106221428D01*
X221995238Y-106173809D01*
X220757142Y-106602380D02*
X220757142Y-105935714D01*
X220757142Y-106030952D02*
X220709523Y-105983333D01*
X220614285Y-105935714D01*
X220471428Y-105935714D01*
X220376190Y-105983333D01*
X220328571Y-106078571D01*
X220328571Y-106602380D01*
X220328571Y-106078571D02*
X220280952Y-105983333D01*
X220185714Y-105935714D01*
X220042857Y-105935714D01*
X219947619Y-105983333D01*
X219900000Y-106078571D01*
X219900000Y-106602380D01*
X219042857Y-106554761D02*
X219138095Y-106602380D01*
X219328571Y-106602380D01*
X219423809Y-106554761D01*
X219471428Y-106459523D01*
X219471428Y-106078571D01*
X219423809Y-105983333D01*
X219328571Y-105935714D01*
X219138095Y-105935714D01*
X219042857Y-105983333D01*
X218995238Y-106078571D01*
X218995238Y-106173809D01*
X219471428Y-106269047D01*
X218566666Y-106602380D02*
X218566666Y-105935714D01*
X218566666Y-106126190D02*
X218519047Y-106030952D01*
X218471428Y-105983333D01*
X218376190Y-105935714D01*
X218280952Y-105935714D01*
X217519047Y-106602380D02*
X217519047Y-105602380D01*
X217519047Y-106554761D02*
X217614285Y-106602380D01*
X217804761Y-106602380D01*
X217900000Y-106554761D01*
X217947619Y-106507142D01*
X217995238Y-106411904D01*
X217995238Y-106126190D01*
X217947619Y-106030952D01*
X217900000Y-105983333D01*
X217804761Y-105935714D01*
X217614285Y-105935714D01*
X217519047Y-105983333D01*
X216661904Y-106554761D02*
X216757142Y-106602380D01*
X216947619Y-106602380D01*
X217042857Y-106554761D01*
X217090476Y-106459523D01*
X217090476Y-106078571D01*
X217042857Y-105983333D01*
X216947619Y-105935714D01*
X216757142Y-105935714D01*
X216661904Y-105983333D01*
X216614285Y-106078571D01*
X216614285Y-106173809D01*
X217090476Y-106269047D01*
X216233333Y-106554761D02*
X216138095Y-106602380D01*
X215947619Y-106602380D01*
X215852380Y-106554761D01*
X215804761Y-106459523D01*
X215804761Y-106411904D01*
X215852380Y-106316666D01*
X215947619Y-106269047D01*
X216090476Y-106269047D01*
X216185714Y-106221428D01*
X216233333Y-106126190D01*
X216233333Y-106078571D01*
X216185714Y-105983333D01*
X216090476Y-105935714D01*
X215947619Y-105935714D01*
X215852380Y-105983333D01*
X233352380Y-108252380D02*
X233352380Y-107252380D01*
X232923809Y-108252380D02*
X232923809Y-107728571D01*
X232971428Y-107633333D01*
X233066666Y-107585714D01*
X233209523Y-107585714D01*
X233304761Y-107633333D01*
X233352380Y-107680952D01*
X232066666Y-108204761D02*
X232161904Y-108252380D01*
X232352380Y-108252380D01*
X232447619Y-108204761D01*
X232495238Y-108109523D01*
X232495238Y-107728571D01*
X232447619Y-107633333D01*
X232352380Y-107585714D01*
X232161904Y-107585714D01*
X232066666Y-107633333D01*
X232019047Y-107728571D01*
X232019047Y-107823809D01*
X232495238Y-107919047D01*
X231161904Y-107585714D02*
X231161904Y-108252380D01*
X231590476Y-107585714D02*
X231590476Y-108109523D01*
X231542857Y-108204761D01*
X231447619Y-108252380D01*
X231304761Y-108252380D01*
X231209523Y-108204761D01*
X231161904Y-108157142D01*
X230685714Y-108252380D02*
X230685714Y-107585714D01*
X230685714Y-107776190D02*
X230638095Y-107680952D01*
X230590476Y-107633333D01*
X230495238Y-107585714D01*
X230400000Y-107585714D01*
X229685714Y-108204761D02*
X229780952Y-108252380D01*
X229971428Y-108252380D01*
X230066666Y-108204761D01*
X230114285Y-108109523D01*
X230114285Y-107728571D01*
X230066666Y-107633333D01*
X229971428Y-107585714D01*
X229780952Y-107585714D01*
X229685714Y-107633333D01*
X229638095Y-107728571D01*
X229638095Y-107823809D01*
X230114285Y-107919047D01*
X228780952Y-107585714D02*
X228780952Y-108252380D01*
X229209523Y-107585714D02*
X229209523Y-108109523D01*
X229161904Y-108204761D01*
X229066666Y-108252380D01*
X228923809Y-108252380D01*
X228828571Y-108204761D01*
X228780952Y-108157142D01*
X228352380Y-108204761D02*
X228257142Y-108252380D01*
X228066666Y-108252380D01*
X227971428Y-108204761D01*
X227923809Y-108109523D01*
X227923809Y-108061904D01*
X227971428Y-107966666D01*
X228066666Y-107919047D01*
X228209523Y-107919047D01*
X228304761Y-107871428D01*
X228352380Y-107776190D01*
X228352380Y-107728571D01*
X228304761Y-107633333D01*
X228209523Y-107585714D01*
X228066666Y-107585714D01*
X227971428Y-107633333D01*
X227114285Y-108204761D02*
X227209523Y-108252380D01*
X227400000Y-108252380D01*
X227495238Y-108204761D01*
X227542857Y-108109523D01*
X227542857Y-107728571D01*
X227495238Y-107633333D01*
X227400000Y-107585714D01*
X227209523Y-107585714D01*
X227114285Y-107633333D01*
X227066666Y-107728571D01*
X227066666Y-107823809D01*
X227542857Y-107919047D01*
X226638095Y-108252380D02*
X226638095Y-107585714D01*
X226638095Y-107680952D02*
X226590476Y-107633333D01*
X226495238Y-107585714D01*
X226352380Y-107585714D01*
X226257142Y-107633333D01*
X226209523Y-107728571D01*
X226209523Y-108252380D01*
X226209523Y-107728571D02*
X226161904Y-107633333D01*
X226066666Y-107585714D01*
X225923809Y-107585714D01*
X225828571Y-107633333D01*
X225780952Y-107728571D01*
X225780952Y-108252380D01*
X224923809Y-108204761D02*
X225019047Y-108252380D01*
X225209523Y-108252380D01*
X225304761Y-108204761D01*
X225352380Y-108109523D01*
X225352380Y-107728571D01*
X225304761Y-107633333D01*
X225209523Y-107585714D01*
X225019047Y-107585714D01*
X224923809Y-107633333D01*
X224876190Y-107728571D01*
X224876190Y-107823809D01*
X225352380Y-107919047D01*
X224447619Y-107585714D02*
X224447619Y-108252380D01*
X224447619Y-107680952D02*
X224400000Y-107633333D01*
X224304761Y-107585714D01*
X224161904Y-107585714D01*
X224066666Y-107633333D01*
X224019047Y-107728571D01*
X224019047Y-108252380D01*
X223685714Y-107585714D02*
X223304761Y-107585714D01*
X223542857Y-107252380D02*
X223542857Y-108109523D01*
X223495238Y-108204761D01*
X223400000Y-108252380D01*
X223304761Y-108252380D01*
X237257142Y-109902380D02*
X237257142Y-109378571D01*
X237304761Y-109283333D01*
X237400000Y-109235714D01*
X237590476Y-109235714D01*
X237685714Y-109283333D01*
X237257142Y-109854761D02*
X237352380Y-109902380D01*
X237590476Y-109902380D01*
X237685714Y-109854761D01*
X237733333Y-109759523D01*
X237733333Y-109664285D01*
X237685714Y-109569047D01*
X237590476Y-109521428D01*
X237352380Y-109521428D01*
X237257142Y-109473809D01*
X236780952Y-109902380D02*
X236780952Y-109235714D01*
X236780952Y-109426190D02*
X236733333Y-109330952D01*
X236685714Y-109283333D01*
X236590476Y-109235714D01*
X236495238Y-109235714D01*
X235733333Y-109902380D02*
X235733333Y-108902380D01*
X235733333Y-109854761D02*
X235828571Y-109902380D01*
X236019047Y-109902380D01*
X236114285Y-109854761D01*
X236161904Y-109807142D01*
X236209523Y-109711904D01*
X236209523Y-109426190D01*
X236161904Y-109330952D01*
X236114285Y-109283333D01*
X236019047Y-109235714D01*
X235828571Y-109235714D01*
X235733333Y-109283333D01*
X234828571Y-109235714D02*
X234828571Y-109902380D01*
X235257142Y-109235714D02*
X235257142Y-109759523D01*
X235209523Y-109854761D01*
X235114285Y-109902380D01*
X234971428Y-109902380D01*
X234876190Y-109854761D01*
X234828571Y-109807142D01*
X234352380Y-109902380D02*
X234352380Y-109235714D01*
X234352380Y-108902380D02*
X234400000Y-108950000D01*
X234352380Y-108997619D01*
X234304761Y-108950000D01*
X234352380Y-108902380D01*
X234352380Y-108997619D01*
X233876190Y-109235714D02*
X233876190Y-109902380D01*
X233876190Y-109330952D02*
X233828571Y-109283333D01*
X233733333Y-109235714D01*
X233590476Y-109235714D01*
X233495238Y-109283333D01*
X233447619Y-109378571D01*
X233447619Y-109902380D01*
X232828571Y-109902380D02*
X232923809Y-109854761D01*
X232971428Y-109807142D01*
X233019047Y-109711904D01*
X233019047Y-109426190D01*
X232971428Y-109330952D01*
X232923809Y-109283333D01*
X232828571Y-109235714D01*
X232685714Y-109235714D01*
X232590476Y-109283333D01*
X232542857Y-109330952D01*
X232495238Y-109426190D01*
X232495238Y-109711904D01*
X232542857Y-109807142D01*
X232590476Y-109854761D01*
X232685714Y-109902380D01*
X232828571Y-109902380D01*
X230923809Y-109854761D02*
X231019047Y-109902380D01*
X231209523Y-109902380D01*
X231304761Y-109854761D01*
X231352380Y-109759523D01*
X231352380Y-109378571D01*
X231304761Y-109283333D01*
X231209523Y-109235714D01*
X231019047Y-109235714D01*
X230923809Y-109283333D01*
X230876190Y-109378571D01*
X230876190Y-109473809D01*
X231352380Y-109569047D01*
X230495238Y-109854761D02*
X230400000Y-109902380D01*
X230209523Y-109902380D01*
X230114285Y-109854761D01*
X230066666Y-109759523D01*
X230066666Y-109711904D01*
X230114285Y-109616666D01*
X230209523Y-109569047D01*
X230352380Y-109569047D01*
X230447619Y-109521428D01*
X230495238Y-109426190D01*
X230495238Y-109378571D01*
X230447619Y-109283333D01*
X230352380Y-109235714D01*
X230209523Y-109235714D01*
X230114285Y-109283333D01*
X229780952Y-109235714D02*
X229400000Y-109235714D01*
X229638095Y-108902380D02*
X229638095Y-109759523D01*
X229590476Y-109854761D01*
X229495238Y-109902380D01*
X229400000Y-109902380D01*
X228304761Y-109902380D02*
X228304761Y-109235714D01*
X228304761Y-109330952D02*
X228257142Y-109283333D01*
X228161904Y-109235714D01*
X228019047Y-109235714D01*
X227923809Y-109283333D01*
X227876190Y-109378571D01*
X227876190Y-109902380D01*
X227876190Y-109378571D02*
X227828571Y-109283333D01*
X227733333Y-109235714D01*
X227590476Y-109235714D01*
X227495238Y-109283333D01*
X227447619Y-109378571D01*
X227447619Y-109902380D01*
X226828571Y-109902380D02*
X226923809Y-109854761D01*
X226971428Y-109807142D01*
X227019047Y-109711904D01*
X227019047Y-109426190D01*
X226971428Y-109330952D01*
X226923809Y-109283333D01*
X226828571Y-109235714D01*
X226685714Y-109235714D01*
X226590476Y-109283333D01*
X226542857Y-109330952D01*
X226495238Y-109426190D01*
X226495238Y-109711904D01*
X226542857Y-109807142D01*
X226590476Y-109854761D01*
X226685714Y-109902380D01*
X226828571Y-109902380D01*
X226066666Y-109235714D02*
X226066666Y-109902380D01*
X226066666Y-109330952D02*
X226019047Y-109283333D01*
X225923809Y-109235714D01*
X225780952Y-109235714D01*
X225685714Y-109283333D01*
X225638095Y-109378571D01*
X225638095Y-109902380D01*
X224447619Y-109854761D02*
X224352380Y-109902380D01*
X224161904Y-109902380D01*
X224066666Y-109854761D01*
X224019047Y-109759523D01*
X224019047Y-109711904D01*
X224066666Y-109616666D01*
X224161904Y-109569047D01*
X224304761Y-109569047D01*
X224400000Y-109521428D01*
X224447619Y-109426190D01*
X224447619Y-109378571D01*
X224400000Y-109283333D01*
X224304761Y-109235714D01*
X224161904Y-109235714D01*
X224066666Y-109283333D01*
X223161904Y-109902380D02*
X223161904Y-109378571D01*
X223209523Y-109283333D01*
X223304761Y-109235714D01*
X223495238Y-109235714D01*
X223590476Y-109283333D01*
X223161904Y-109854761D02*
X223257142Y-109902380D01*
X223495238Y-109902380D01*
X223590476Y-109854761D01*
X223638095Y-109759523D01*
X223638095Y-109664285D01*
X223590476Y-109569047D01*
X223495238Y-109521428D01*
X223257142Y-109521428D01*
X223161904Y-109473809D01*
X222257142Y-109235714D02*
X222257142Y-109902380D01*
X222685714Y-109235714D02*
X222685714Y-109759523D01*
X222638095Y-109854761D01*
X222542857Y-109902380D01*
X222400000Y-109902380D01*
X222304761Y-109854761D01*
X222257142Y-109807142D01*
X221876190Y-109235714D02*
X221638095Y-109902380D01*
X221400000Y-109235714D01*
X220638095Y-109854761D02*
X220733333Y-109902380D01*
X220923809Y-109902380D01*
X221019047Y-109854761D01*
X221066666Y-109759523D01*
X221066666Y-109378571D01*
X221019047Y-109283333D01*
X220923809Y-109235714D01*
X220733333Y-109235714D01*
X220638095Y-109283333D01*
X220590476Y-109378571D01*
X220590476Y-109473809D01*
X221066666Y-109569047D01*
X219733333Y-109235714D02*
X219733333Y-109902380D01*
X220161904Y-109235714D02*
X220161904Y-109759523D01*
X220114285Y-109854761D01*
X220019047Y-109902380D01*
X219876190Y-109902380D01*
X219780952Y-109854761D01*
X219733333Y-109807142D01*
X219257142Y-109902380D02*
X219257142Y-109235714D01*
X219257142Y-109426190D02*
X219209523Y-109330952D01*
X219161904Y-109283333D01*
X219066666Y-109235714D01*
X218971428Y-109235714D01*
X201128571Y-117638095D02*
X201128571Y-116876190D01*
X200747619Y-117257142D02*
X201509523Y-117257142D01*
X201747619Y-115923809D02*
X201747619Y-116400000D01*
X201271428Y-116447619D01*
X201319047Y-116400000D01*
X201366666Y-116304761D01*
X201366666Y-116066666D01*
X201319047Y-115971428D01*
X201271428Y-115923809D01*
X201176190Y-115876190D01*
X200938095Y-115876190D01*
X200842857Y-115923809D01*
X200795238Y-115971428D01*
X200747619Y-116066666D01*
X200747619Y-116304761D01*
X200795238Y-116400000D01*
X200842857Y-116447619D01*
X201414285Y-115542857D02*
X200747619Y-115304761D01*
X201414285Y-115066666D01*
X201128571Y-113438095D02*
X201128571Y-112676190D01*
X200747619Y-113057142D02*
X201509523Y-113057142D01*
X201747619Y-111723809D02*
X201747619Y-112200000D01*
X201271428Y-112247619D01*
X201319047Y-112200000D01*
X201366666Y-112104761D01*
X201366666Y-111866666D01*
X201319047Y-111771428D01*
X201271428Y-111723809D01*
X201176190Y-111676190D01*
X200938095Y-111676190D01*
X200842857Y-111723809D01*
X200795238Y-111771428D01*
X200747619Y-111866666D01*
X200747619Y-112104761D01*
X200795238Y-112200000D01*
X200842857Y-112247619D01*
X201414285Y-111342857D02*
X200747619Y-111104761D01*
X201414285Y-110866666D01*
X201128571Y-124238095D02*
X201128571Y-123476190D01*
X200747619Y-123857142D02*
X201509523Y-123857142D01*
X201747619Y-123095238D02*
X201747619Y-122476190D01*
X201366666Y-122809523D01*
X201366666Y-122666666D01*
X201319047Y-122571428D01*
X201271428Y-122523809D01*
X201176190Y-122476190D01*
X200938095Y-122476190D01*
X200842857Y-122523809D01*
X200795238Y-122571428D01*
X200747619Y-122666666D01*
X200747619Y-122952380D01*
X200795238Y-123047619D01*
X200842857Y-123095238D01*
X201414285Y-122142857D02*
X200747619Y-121904761D01*
X201414285Y-121666666D01*
X201128571Y-136038095D02*
X201128571Y-135276190D01*
X200747619Y-135657142D02*
X201509523Y-135657142D01*
X201747619Y-134895238D02*
X201747619Y-134276190D01*
X201366666Y-134609523D01*
X201366666Y-134466666D01*
X201319047Y-134371428D01*
X201271428Y-134323809D01*
X201176190Y-134276190D01*
X200938095Y-134276190D01*
X200842857Y-134323809D01*
X200795238Y-134371428D01*
X200747619Y-134466666D01*
X200747619Y-134752380D01*
X200795238Y-134847619D01*
X200842857Y-134895238D01*
X201414285Y-133942857D02*
X200747619Y-133704761D01*
X201414285Y-133466666D01*
X201271428Y-106619047D02*
X201271428Y-107380952D01*
X201271428Y-118719047D02*
X201271428Y-119480952D01*
X201271428Y-125019047D02*
X201271428Y-125780952D01*
X201271428Y-129719047D02*
X201271428Y-130480952D01*
X215485714Y-146385714D02*
X215485714Y-147195238D01*
X215533333Y-147290476D01*
X215580952Y-147338095D01*
X215676190Y-147385714D01*
X215819047Y-147385714D01*
X215914285Y-147338095D01*
X215485714Y-147004761D02*
X215580952Y-147052380D01*
X215771428Y-147052380D01*
X215866666Y-147004761D01*
X215914285Y-146957142D01*
X215961904Y-146861904D01*
X215961904Y-146576190D01*
X215914285Y-146480952D01*
X215866666Y-146433333D01*
X215771428Y-146385714D01*
X215580952Y-146385714D01*
X215485714Y-146433333D01*
X215009523Y-146385714D02*
X215009523Y-147385714D01*
X215009523Y-146433333D02*
X214914285Y-146385714D01*
X214723809Y-146385714D01*
X214628571Y-146433333D01*
X214580952Y-146480952D01*
X214533333Y-146576190D01*
X214533333Y-146861904D01*
X214580952Y-146957142D01*
X214628571Y-147004761D01*
X214723809Y-147052380D01*
X214914285Y-147052380D01*
X215009523Y-147004761D01*
X214104761Y-147052380D02*
X214104761Y-146385714D01*
X214104761Y-146052380D02*
X214152380Y-146100000D01*
X214104761Y-146147619D01*
X214057142Y-146100000D01*
X214104761Y-146052380D01*
X214104761Y-146147619D01*
X213485714Y-147052380D02*
X213580952Y-147004761D01*
X213628571Y-146957142D01*
X213676190Y-146861904D01*
X213676190Y-146576190D01*
X213628571Y-146480952D01*
X213580952Y-146433333D01*
X213485714Y-146385714D01*
X213342857Y-146385714D01*
X213247619Y-146433333D01*
X213200000Y-146480952D01*
X213152380Y-146576190D01*
X213152380Y-146861904D01*
X213200000Y-146957142D01*
X213247619Y-147004761D01*
X213342857Y-147052380D01*
X213485714Y-147052380D01*
X212295238Y-146385714D02*
X212295238Y-147052380D01*
X212533333Y-146004761D02*
X212771428Y-146719047D01*
X212152380Y-146719047D01*
X210247619Y-146671428D02*
X209485714Y-146671428D01*
X225961904Y-146385714D02*
X225961904Y-147195238D01*
X226009523Y-147290476D01*
X226057142Y-147338095D01*
X226152380Y-147385714D01*
X226295238Y-147385714D01*
X226390476Y-147338095D01*
X225961904Y-147004761D02*
X226057142Y-147052380D01*
X226247619Y-147052380D01*
X226342857Y-147004761D01*
X226390476Y-146957142D01*
X226438095Y-146861904D01*
X226438095Y-146576190D01*
X226390476Y-146480952D01*
X226342857Y-146433333D01*
X226247619Y-146385714D01*
X226057142Y-146385714D01*
X225961904Y-146433333D01*
X225485714Y-146385714D02*
X225485714Y-147385714D01*
X225485714Y-146433333D02*
X225390476Y-146385714D01*
X225200000Y-146385714D01*
X225104761Y-146433333D01*
X225057142Y-146480952D01*
X225009523Y-146576190D01*
X225009523Y-146861904D01*
X225057142Y-146957142D01*
X225104761Y-147004761D01*
X225200000Y-147052380D01*
X225390476Y-147052380D01*
X225485714Y-147004761D01*
X224580952Y-147052380D02*
X224580952Y-146385714D01*
X224580952Y-146052380D02*
X224628571Y-146100000D01*
X224580952Y-146147619D01*
X224533333Y-146100000D01*
X224580952Y-146052380D01*
X224580952Y-146147619D01*
X223961904Y-147052380D02*
X224057142Y-147004761D01*
X224104761Y-146957142D01*
X224152380Y-146861904D01*
X224152380Y-146576190D01*
X224104761Y-146480952D01*
X224057142Y-146433333D01*
X223961904Y-146385714D01*
X223819047Y-146385714D01*
X223723809Y-146433333D01*
X223676190Y-146480952D01*
X223628571Y-146576190D01*
X223628571Y-146861904D01*
X223676190Y-146957142D01*
X223723809Y-147004761D01*
X223819047Y-147052380D01*
X223961904Y-147052380D01*
X222676190Y-147052380D02*
X223247619Y-147052380D01*
X222961904Y-147052380D02*
X222961904Y-146052380D01*
X223057142Y-146195238D01*
X223152380Y-146290476D01*
X223247619Y-146338095D01*
X222342857Y-146052380D02*
X221676190Y-146052380D01*
X222104761Y-147052380D01*
X219771428Y-146671428D02*
X219009523Y-146671428D01*
X235661904Y-146385714D02*
X235661904Y-147195238D01*
X235709523Y-147290476D01*
X235757142Y-147338095D01*
X235852380Y-147385714D01*
X235995238Y-147385714D01*
X236090476Y-147338095D01*
X235661904Y-147004761D02*
X235757142Y-147052380D01*
X235947619Y-147052380D01*
X236042857Y-147004761D01*
X236090476Y-146957142D01*
X236138095Y-146861904D01*
X236138095Y-146576190D01*
X236090476Y-146480952D01*
X236042857Y-146433333D01*
X235947619Y-146385714D01*
X235757142Y-146385714D01*
X235661904Y-146433333D01*
X235185714Y-146385714D02*
X235185714Y-147385714D01*
X235185714Y-146433333D02*
X235090476Y-146385714D01*
X234900000Y-146385714D01*
X234804761Y-146433333D01*
X234757142Y-146480952D01*
X234709523Y-146576190D01*
X234709523Y-146861904D01*
X234757142Y-146957142D01*
X234804761Y-147004761D01*
X234900000Y-147052380D01*
X235090476Y-147052380D01*
X235185714Y-147004761D01*
X234280952Y-147052380D02*
X234280952Y-146385714D01*
X234280952Y-146052380D02*
X234328571Y-146100000D01*
X234280952Y-146147619D01*
X234233333Y-146100000D01*
X234280952Y-146052380D01*
X234280952Y-146147619D01*
X233661904Y-147052380D02*
X233757142Y-147004761D01*
X233804761Y-146957142D01*
X233852380Y-146861904D01*
X233852380Y-146576190D01*
X233804761Y-146480952D01*
X233757142Y-146433333D01*
X233661904Y-146385714D01*
X233519047Y-146385714D01*
X233423809Y-146433333D01*
X233376190Y-146480952D01*
X233328571Y-146576190D01*
X233328571Y-146861904D01*
X233376190Y-146957142D01*
X233423809Y-147004761D01*
X233519047Y-147052380D01*
X233661904Y-147052380D01*
X232947619Y-146147619D02*
X232900000Y-146100000D01*
X232804761Y-146052380D01*
X232566666Y-146052380D01*
X232471428Y-146100000D01*
X232423809Y-146147619D01*
X232376190Y-146242857D01*
X232376190Y-146338095D01*
X232423809Y-146480952D01*
X232995238Y-147052380D01*
X232376190Y-147052380D01*
X232042857Y-146052380D02*
X231376190Y-146052380D01*
X231804761Y-147052380D01*
X229471428Y-146671428D02*
X228709523Y-146671428D01*
X245761904Y-146385714D02*
X245761904Y-147195238D01*
X245809523Y-147290476D01*
X245857142Y-147338095D01*
X245952380Y-147385714D01*
X246095238Y-147385714D01*
X246190476Y-147338095D01*
X245761904Y-147004761D02*
X245857142Y-147052380D01*
X246047619Y-147052380D01*
X246142857Y-147004761D01*
X246190476Y-146957142D01*
X246238095Y-146861904D01*
X246238095Y-146576190D01*
X246190476Y-146480952D01*
X246142857Y-146433333D01*
X246047619Y-146385714D01*
X245857142Y-146385714D01*
X245761904Y-146433333D01*
X245285714Y-146385714D02*
X245285714Y-147385714D01*
X245285714Y-146433333D02*
X245190476Y-146385714D01*
X245000000Y-146385714D01*
X244904761Y-146433333D01*
X244857142Y-146480952D01*
X244809523Y-146576190D01*
X244809523Y-146861904D01*
X244857142Y-146957142D01*
X244904761Y-147004761D01*
X245000000Y-147052380D01*
X245190476Y-147052380D01*
X245285714Y-147004761D01*
X244380952Y-147052380D02*
X244380952Y-146385714D01*
X244380952Y-146052380D02*
X244428571Y-146100000D01*
X244380952Y-146147619D01*
X244333333Y-146100000D01*
X244380952Y-146052380D01*
X244380952Y-146147619D01*
X243761904Y-147052380D02*
X243857142Y-147004761D01*
X243904761Y-146957142D01*
X243952380Y-146861904D01*
X243952380Y-146576190D01*
X243904761Y-146480952D01*
X243857142Y-146433333D01*
X243761904Y-146385714D01*
X243619047Y-146385714D01*
X243523809Y-146433333D01*
X243476190Y-146480952D01*
X243428571Y-146576190D01*
X243428571Y-146861904D01*
X243476190Y-146957142D01*
X243523809Y-147004761D01*
X243619047Y-147052380D01*
X243761904Y-147052380D01*
X243047619Y-146147619D02*
X243000000Y-146100000D01*
X242904761Y-146052380D01*
X242666666Y-146052380D01*
X242571428Y-146100000D01*
X242523809Y-146147619D01*
X242476190Y-146242857D01*
X242476190Y-146338095D01*
X242523809Y-146480952D01*
X243095238Y-147052380D01*
X242476190Y-147052380D01*
X242095238Y-146147619D02*
X242047619Y-146100000D01*
X241952380Y-146052380D01*
X241714285Y-146052380D01*
X241619047Y-146100000D01*
X241571428Y-146147619D01*
X241523809Y-146242857D01*
X241523809Y-146338095D01*
X241571428Y-146480952D01*
X242142857Y-147052380D01*
X241523809Y-147052380D01*
X239571428Y-146671428D02*
X238809523Y-146671428D01*
X255385714Y-146385714D02*
X255385714Y-147195238D01*
X255433333Y-147290476D01*
X255480952Y-147338095D01*
X255576190Y-147385714D01*
X255719047Y-147385714D01*
X255814285Y-147338095D01*
X255385714Y-147004761D02*
X255480952Y-147052380D01*
X255671428Y-147052380D01*
X255766666Y-147004761D01*
X255814285Y-146957142D01*
X255861904Y-146861904D01*
X255861904Y-146576190D01*
X255814285Y-146480952D01*
X255766666Y-146433333D01*
X255671428Y-146385714D01*
X255480952Y-146385714D01*
X255385714Y-146433333D01*
X254909523Y-146385714D02*
X254909523Y-147385714D01*
X254909523Y-146433333D02*
X254814285Y-146385714D01*
X254623809Y-146385714D01*
X254528571Y-146433333D01*
X254480952Y-146480952D01*
X254433333Y-146576190D01*
X254433333Y-146861904D01*
X254480952Y-146957142D01*
X254528571Y-147004761D01*
X254623809Y-147052380D01*
X254814285Y-147052380D01*
X254909523Y-147004761D01*
X254004761Y-147052380D02*
X254004761Y-146385714D01*
X254004761Y-146052380D02*
X254052380Y-146100000D01*
X254004761Y-146147619D01*
X253957142Y-146100000D01*
X254004761Y-146052380D01*
X254004761Y-146147619D01*
X253385714Y-147052380D02*
X253480952Y-147004761D01*
X253528571Y-146957142D01*
X253576190Y-146861904D01*
X253576190Y-146576190D01*
X253528571Y-146480952D01*
X253480952Y-146433333D01*
X253385714Y-146385714D01*
X253242857Y-146385714D01*
X253147619Y-146433333D01*
X253100000Y-146480952D01*
X253052380Y-146576190D01*
X253052380Y-146861904D01*
X253100000Y-146957142D01*
X253147619Y-147004761D01*
X253242857Y-147052380D01*
X253385714Y-147052380D01*
X252147619Y-146052380D02*
X252623809Y-146052380D01*
X252671428Y-146528571D01*
X252623809Y-146480952D01*
X252528571Y-146433333D01*
X252290476Y-146433333D01*
X252195238Y-146480952D01*
X252147619Y-146528571D01*
X252100000Y-146623809D01*
X252100000Y-146861904D01*
X252147619Y-146957142D01*
X252195238Y-147004761D01*
X252290476Y-147052380D01*
X252528571Y-147052380D01*
X252623809Y-147004761D01*
X252671428Y-146957142D01*
X250147619Y-146671428D02*
X249385714Y-146671428D01*
X262785714Y-126614285D02*
X263595238Y-126614285D01*
X263690476Y-126566666D01*
X263738095Y-126519047D01*
X263785714Y-126423809D01*
X263785714Y-126280952D01*
X263738095Y-126185714D01*
X263404761Y-126614285D02*
X263452380Y-126519047D01*
X263452380Y-126328571D01*
X263404761Y-126233333D01*
X263357142Y-126185714D01*
X263261904Y-126138095D01*
X262976190Y-126138095D01*
X262880952Y-126185714D01*
X262833333Y-126233333D01*
X262785714Y-126328571D01*
X262785714Y-126519047D01*
X262833333Y-126614285D01*
X262785714Y-127090476D02*
X263785714Y-127090476D01*
X262833333Y-127090476D02*
X262785714Y-127185714D01*
X262785714Y-127376190D01*
X262833333Y-127471428D01*
X262880952Y-127519047D01*
X262976190Y-127566666D01*
X263261904Y-127566666D01*
X263357142Y-127519047D01*
X263404761Y-127471428D01*
X263452380Y-127376190D01*
X263452380Y-127185714D01*
X263404761Y-127090476D01*
X263452380Y-127995238D02*
X262785714Y-127995238D01*
X262452380Y-127995238D02*
X262500000Y-127947619D01*
X262547619Y-127995238D01*
X262500000Y-128042857D01*
X262452380Y-127995238D01*
X262547619Y-127995238D01*
X263452380Y-128614285D02*
X263404761Y-128519047D01*
X263357142Y-128471428D01*
X263261904Y-128423809D01*
X262976190Y-128423809D01*
X262880952Y-128471428D01*
X262833333Y-128519047D01*
X262785714Y-128614285D01*
X262785714Y-128757142D01*
X262833333Y-128852380D01*
X262880952Y-128900000D01*
X262976190Y-128947619D01*
X263261904Y-128947619D01*
X263357142Y-128900000D01*
X263404761Y-128852380D01*
X263452380Y-128757142D01*
X263452380Y-128614285D01*
X262452380Y-129804761D02*
X262452380Y-129614285D01*
X262500000Y-129519047D01*
X262547619Y-129471428D01*
X262690476Y-129376190D01*
X262880952Y-129328571D01*
X263261904Y-129328571D01*
X263357142Y-129376190D01*
X263404761Y-129423809D01*
X263452380Y-129519047D01*
X263452380Y-129709523D01*
X263404761Y-129804761D01*
X263357142Y-129852380D01*
X263261904Y-129900000D01*
X263023809Y-129900000D01*
X262928571Y-129852380D01*
X262880952Y-129804761D01*
X262833333Y-129709523D01*
X262833333Y-129519047D01*
X262880952Y-129423809D01*
X262928571Y-129376190D01*
X263023809Y-129328571D01*
X263071428Y-131852380D02*
X263071428Y-132614285D01*
X262785714Y-116319047D02*
X263595238Y-116319047D01*
X263690476Y-116271428D01*
X263738095Y-116223809D01*
X263785714Y-116128571D01*
X263785714Y-115985714D01*
X263738095Y-115890476D01*
X263404761Y-116319047D02*
X263452380Y-116223809D01*
X263452380Y-116033333D01*
X263404761Y-115938095D01*
X263357142Y-115890476D01*
X263261904Y-115842857D01*
X262976190Y-115842857D01*
X262880952Y-115890476D01*
X262833333Y-115938095D01*
X262785714Y-116033333D01*
X262785714Y-116223809D01*
X262833333Y-116319047D01*
X262785714Y-116795238D02*
X263785714Y-116795238D01*
X262833333Y-116795238D02*
X262785714Y-116890476D01*
X262785714Y-117080952D01*
X262833333Y-117176190D01*
X262880952Y-117223809D01*
X262976190Y-117271428D01*
X263261904Y-117271428D01*
X263357142Y-117223809D01*
X263404761Y-117176190D01*
X263452380Y-117080952D01*
X263452380Y-116890476D01*
X263404761Y-116795238D01*
X263452380Y-117700000D02*
X262785714Y-117700000D01*
X262452380Y-117700000D02*
X262500000Y-117652380D01*
X262547619Y-117700000D01*
X262500000Y-117747619D01*
X262452380Y-117700000D01*
X262547619Y-117700000D01*
X263452380Y-118319047D02*
X263404761Y-118223809D01*
X263357142Y-118176190D01*
X263261904Y-118128571D01*
X262976190Y-118128571D01*
X262880952Y-118176190D01*
X262833333Y-118223809D01*
X262785714Y-118319047D01*
X262785714Y-118461904D01*
X262833333Y-118557142D01*
X262880952Y-118604761D01*
X262976190Y-118652380D01*
X263261904Y-118652380D01*
X263357142Y-118604761D01*
X263404761Y-118557142D01*
X263452380Y-118461904D01*
X263452380Y-118319047D01*
X263452380Y-119604761D02*
X263452380Y-119033333D01*
X263452380Y-119319047D02*
X262452380Y-119319047D01*
X262595238Y-119223809D01*
X262690476Y-119128571D01*
X262738095Y-119033333D01*
X262452380Y-119938095D02*
X262452380Y-120557142D01*
X262833333Y-120223809D01*
X262833333Y-120366666D01*
X262880952Y-120461904D01*
X262928571Y-120509523D01*
X263023809Y-120557142D01*
X263261904Y-120557142D01*
X263357142Y-120509523D01*
X263404761Y-120461904D01*
X263452380Y-120366666D01*
X263452380Y-120080952D01*
X263404761Y-119985714D01*
X263357142Y-119938095D01*
X263071428Y-121747619D02*
X263071428Y-122509523D01*
X262785714Y-106319047D02*
X263595238Y-106319047D01*
X263690476Y-106271428D01*
X263738095Y-106223809D01*
X263785714Y-106128571D01*
X263785714Y-105985714D01*
X263738095Y-105890476D01*
X263404761Y-106319047D02*
X263452380Y-106223809D01*
X263452380Y-106033333D01*
X263404761Y-105938095D01*
X263357142Y-105890476D01*
X263261904Y-105842857D01*
X262976190Y-105842857D01*
X262880952Y-105890476D01*
X262833333Y-105938095D01*
X262785714Y-106033333D01*
X262785714Y-106223809D01*
X262833333Y-106319047D01*
X262785714Y-106795238D02*
X263785714Y-106795238D01*
X262833333Y-106795238D02*
X262785714Y-106890476D01*
X262785714Y-107080952D01*
X262833333Y-107176190D01*
X262880952Y-107223809D01*
X262976190Y-107271428D01*
X263261904Y-107271428D01*
X263357142Y-107223809D01*
X263404761Y-107176190D01*
X263452380Y-107080952D01*
X263452380Y-106890476D01*
X263404761Y-106795238D01*
X263452380Y-107700000D02*
X262785714Y-107700000D01*
X262452380Y-107700000D02*
X262500000Y-107652380D01*
X262547619Y-107700000D01*
X262500000Y-107747619D01*
X262452380Y-107700000D01*
X262547619Y-107700000D01*
X263452380Y-108319047D02*
X263404761Y-108223809D01*
X263357142Y-108176190D01*
X263261904Y-108128571D01*
X262976190Y-108128571D01*
X262880952Y-108176190D01*
X262833333Y-108223809D01*
X262785714Y-108319047D01*
X262785714Y-108461904D01*
X262833333Y-108557142D01*
X262880952Y-108604761D01*
X262976190Y-108652380D01*
X263261904Y-108652380D01*
X263357142Y-108604761D01*
X263404761Y-108557142D01*
X263452380Y-108461904D01*
X263452380Y-108319047D01*
X262547619Y-109033333D02*
X262500000Y-109080952D01*
X262452380Y-109176190D01*
X262452380Y-109414285D01*
X262500000Y-109509523D01*
X262547619Y-109557142D01*
X262642857Y-109604761D01*
X262738095Y-109604761D01*
X262880952Y-109557142D01*
X263452380Y-108985714D01*
X263452380Y-109604761D01*
X262452380Y-109938095D02*
X262452380Y-110604761D01*
X263452380Y-110176190D01*
X263071428Y-111747619D02*
X263071428Y-112509523D01*
D11*
X209640000Y-100100000D02*
X257960000Y-100100000D01*
X257960000Y-100100000D02*
X257960000Y-94900000D01*
X257960000Y-94900000D02*
X207040000Y-94900000D01*
X207040000Y-94900000D02*
X207040000Y-97500000D01*
X207040000Y-97500000D02*
X209640000Y-97500000D01*
X209640000Y-97500000D02*
X209640000Y-100100000D01*
X208370000Y-100100000D02*
X207040000Y-100100000D01*
X207040000Y-100100000D02*
X207040000Y-98830000D01*
D10*
X209120095Y-101430380D02*
X209120095Y-100430380D01*
X208739142Y-100430380D01*
X208643904Y-100478000D01*
X208596285Y-100525619D01*
X208548666Y-100620857D01*
X208548666Y-100763714D01*
X208596285Y-100858952D01*
X208643904Y-100906571D01*
X208739142Y-100954190D01*
X209120095Y-100954190D01*
X207596285Y-101430380D02*
X208167714Y-101430380D01*
X207882000Y-101430380D02*
X207882000Y-100430380D01*
X207977238Y-100573238D01*
X208072476Y-100668476D01*
X208167714Y-100716095D01*
M02*
